HIERARCHY
ROOT Hips
{
	OFFSET 0.000000 0.000000 0.000000
	CHANNELS 6 Xposition Yposition Zposition Zrotation Yrotation Xrotation 
	JOINT LHipJoint
	{
		OFFSET 0.000000 0.000000 0.000000
		CHANNELS 3 Zrotation Yrotation Xrotation
		JOINT LeftUpLeg
		{
			OFFSET 1.363060 -1.794630 0.839290
			CHANNELS 3 Zrotation Yrotation Xrotation
			JOINT LeftLeg
			{
				OFFSET 2.448110 -6.726130 0.000000
				CHANNELS 3 Zrotation Yrotation Xrotation
				JOINT LeftFoot
				{
					OFFSET 2.562200 -7.039590 0.000000
					CHANNELS 3 Zrotation Yrotation Xrotation
					JOINT LeftToeBase
					{
						OFFSET 0.157640 -0.433110 2.322550
						CHANNELS 3 Zrotation Yrotation Xrotation
						End Site
						{
							OFFSET 0.000000 0.000000 0.000000
						}
					}
				}
			}
		}
	}
	JOINT RHipJoint
	{
		OFFSET 0.000000 0.000000 0.000000
		CHANNELS 3 Zrotation Yrotation Xrotation
		JOINT RightUpLeg
		{
			OFFSET -1.305520 -1.794630 0.839290
			CHANNELS 3 Zrotation Yrotation Xrotation
			JOINT RightLeg
			{
				OFFSET -2.542530 -6.985550 0.000000
				CHANNELS 3 Zrotation Yrotation Xrotation
				JOINT RightFoot
				{
					OFFSET -2.568260 -7.056230 0.000000
					CHANNELS 3 Zrotation Yrotation Xrotation
					JOINT RightToeBase
					{
						OFFSET -0.164730 -0.452590 2.363150
						CHANNELS 3 Zrotation Yrotation Xrotation
						End Site
						{
							OFFSET 0.000000 0.000000 0.000000
						}
					}
				}
			}
		}
	}
	JOINT LowerBack
	{
		OFFSET 0.000000 0.000000 0.000000
		CHANNELS 3 Zrotation Yrotation Xrotation
		JOINT Spine
		{
			OFFSET 0.028270 2.035590 -0.193380
			CHANNELS 3 Zrotation Yrotation Xrotation
			JOINT Spine1
			{
				OFFSET 0.056720 2.048850 -0.042750
				CHANNELS 3 Zrotation Yrotation Xrotation
				JOINT Neck
				{
					OFFSET 0.000000 0.000000 0.000000
					CHANNELS 3 Zrotation Yrotation Xrotation
					JOINT Neck1
					{
						OFFSET -0.054170 1.746240 0.172020
						CHANNELS 3 Zrotation Yrotation Xrotation
						JOINT Head
						{
							OFFSET 0.104070 1.761360 -0.123970
							CHANNELS 3 Zrotation Yrotation Xrotation
							End Site
							{
								OFFSET 0.000000 0.000000 0.000000
							}
						}
					}
				}
				JOINT LeftShoulder
				{
					OFFSET 0.000000 0.000000 0.000000
					CHANNELS 3 Zrotation Yrotation Xrotation
					JOINT LeftArm
					{
						OFFSET 3.362410 1.200890 -0.311210
						CHANNELS 3 Zrotation Yrotation Xrotation
						JOINT LeftForeArm
						{
							OFFSET 4.983000 -0.000000 -0.000000
							CHANNELS 3 Zrotation Yrotation Xrotation
							JOINT LeftHand
							{
								OFFSET 3.483560 -0.000000 -0.000000
								CHANNELS 3 Zrotation Yrotation Xrotation
								JOINT LeftFingerBase
								{
									OFFSET 0.000000 0.000000 0.000000
									CHANNELS 3 Zrotation Yrotation Xrotation
									JOINT LeftHandIndex1
									{
										OFFSET 0.715260 -0.000000 -0.000000
										CHANNELS 3 Zrotation Yrotation Xrotation
										End Site
										{
											OFFSET 0.000000 0.000000 0.000000
										}
									}
								}
								JOINT LThumb
								{
									OFFSET 0.000000 0.000000 0.000000
									CHANNELS 3 Zrotation Yrotation Xrotation
									End Site
									{
										OFFSET 0.000000 0.000000 0.000000
									}
								}
							}
						}
					}
				}
				JOINT RightShoulder
				{
					OFFSET 0.000000 0.000000 0.000000
					CHANNELS 3 Zrotation Yrotation Xrotation
					JOINT RightArm
					{
						OFFSET -3.136600 1.374050 -0.404650
						CHANNELS 3 Zrotation Yrotation Xrotation
						JOINT RightForeArm
						{
							OFFSET -5.241900 -0.000000 -0.000000
							CHANNELS 3 Zrotation Yrotation Xrotation
							JOINT RightHand
							{
								OFFSET -3.444170 -0.000000 -0.000000
								CHANNELS 3 Zrotation Yrotation Xrotation
								JOINT RightFingerBase
								{
									OFFSET 0.000000 0.000000 0.000000
									CHANNELS 3 Zrotation Yrotation Xrotation
									JOINT RightHandIndex1
									{
										OFFSET -0.622530 -0.000000 -0.000000
										CHANNELS 3 Zrotation Yrotation Xrotation
										End Site
										{
											OFFSET 0.000000 0.000000 0.000000
										}
									}
								}
								JOINT RThumb
								{
									OFFSET 0.000000 0.000000 0.000000
									CHANNELS 3 Zrotation Yrotation Xrotation
									End Site
									{
										OFFSET 0.000000 0.000000 0.000000
									}
								}
							}
						}
					}
				}
			}
		}
	}
}
MOTION
Frames: 11
Frame Time: 0.008333
-0.596046 17.619175 -49.651508 -0.811958 -2.909419 19.805040 -1.126818 -3.563338 -4.375830 -13.515319 -1.686722 -46.133580 4.442154 15.399672 43.533429 -0.592998 4.251485 -2.313741 0.158700 -2.566900 -7.075300 0.619530 1.762106 -1.596448 21.081045 -2.608842 -21.691888 -1.631450 -10.490415 29.133508 -3.057894 22.979339 -12.443322 -0.050100 -1.443900 3.971000 2.712482 2.469073 -8.693137 0.913688 2.324901 -9.031817 -0.775574 1.479930 1.359608 -1.237886 -2.658015 -6.601874 1.802166 -3.494403 14.976511 -0.942900 -1.437800 4.975800 13.277510 8.262696 0.531933 -99.832281 18.688224 19.567314 7.130925 -19.858217 -0.926837 -1.005330 -0.699386 19.817459 13.085713 -19.531648 -4.445200 -7.125000 0.000000 0.000000 -9.342500 11.217600 7.448800 -13.210964 -7.311613 -0.175718 97.251158 3.120992 29.755041 -25.584135 43.675525 -9.271602 -0.070264 -1.784543 -12.448096 -18.218181 -36.804390 10.440100 7.125000 0.000000 0.000000 20.072200 -65.340500 -10.051000 
-0.582297 17.615415 -49.415303 -0.657206 -3.403603 19.833078 -1.232623 -3.646282 -4.498769 -13.552074 -1.645282 -46.048423 3.484512 14.524816 40.103560 -0.726157 5.003904 -2.153638 0.189700 -2.805100 -7.736600 0.672864 1.752986 -1.530749 20.743799 -3.330522 -20.886628 -1.583642 -10.286764 28.613546 -3.047238 23.786424 -12.189895 -0.076400 -1.782800 4.905800 2.398139 2.431836 -9.169730 0.947006 2.283970 -8.768997 -0.446161 1.474595 2.262208 -1.454075 -2.527867 -7.220484 1.723339 -3.266507 14.677172 -0.938900 -1.349300 4.939200 13.324771 8.339797 0.632186 -100.473778 18.968295 17.670425 6.981169 -19.696715 -0.890184 -1.048123 -0.673673 20.806500 12.640353 -19.814422 -4.370300 -7.125000 0.000000 0.000000 -9.617200 10.977400 7.722300 -13.216693 -7.389517 -0.249695 96.713377 4.829939 30.937966 -26.235202 44.297685 -9.671583 -0.026711 -1.753100 -12.924523 -17.638414 -35.866745 9.879200 7.125000 0.000000 0.000000 19.763700 -64.337700 -9.432400 
-0.572307 17.611978 -49.204340 -0.544632 -3.284354 19.881896 -1.351920 -3.722857 -4.598531 -13.210693 -2.447157 -45.910165 2.574837 13.598640 36.642093 -0.900965 5.950811 -1.909882 0.118600 -2.220000 -6.113900 0.741350 1.746607 -1.429109 20.604727 -4.147926 -20.252195 -1.526070 -10.090561 28.120683 -3.086022 23.912135 -12.273451 -0.061800 -1.603400 4.410900 2.169726 2.233150 -8.773846 1.002767 2.083403 -8.831134 -0.249301 1.391200 1.980248 -1.557770 -2.426549 -7.494936 1.567994 -3.081283 14.897723 -0.888400 -1.274400 4.615900 13.333060 8.362946 0.658653 -100.790393 19.100367 16.272431 6.611085 -18.977651 -0.769477 -1.084309 -0.661768 21.615781 12.302054 -20.214010 -4.348900 -7.125000 0.000000 0.000000 -9.828400 10.620900 7.969800 -13.170261 -7.360853 -0.322836 96.238483 5.728125 31.852716 -27.004448 44.931954 -10.118956 0.018518 -1.723890 -13.453125 -17.205821 -35.432713 9.540000 7.125000 0.000000 0.000000 19.809000 -63.842300 -9.226300 
-0.562103 17.600699 -48.988973 -0.605998 -3.343304 19.996392 -1.465011 -3.805113 -4.699888 -12.724105 -2.970856 -45.768245 1.708139 12.568276 33.049982 -1.109188 7.023252 -1.343084 0.085300 -1.883900 -5.185000 0.805406 1.734194 -1.322040 20.598253 -4.791788 -19.615694 -1.464235 -9.886474 27.605390 -3.075352 24.260034 -12.131746 -0.060100 -1.581500 4.350500 2.141016 2.126386 -8.333382 1.047429 1.967367 -8.975023 -0.199797 1.344538 1.476887 -1.639545 -2.318980 -7.721450 1.542031 -2.914333 14.975264 -0.877500 -1.199100 4.729700 13.255020 8.348214 0.652105 -100.662163 21.394494 16.618955 7.309063 -20.267908 -0.980515 -1.091210 -0.627215 20.708236 11.807053 -20.387465 -4.236900 -7.125000 0.000000 0.000000 -10.130200 10.448600 8.258600 -13.100010 -7.300452 -0.386602 95.748863 6.376306 32.986147 -27.808613 45.562800 -10.579680 0.048980 -1.697741 -14.245950 -17.393424 -35.312609 9.633700 7.125000 0.000000 0.000000 19.490100 -63.803100 -9.054300 
-0.551791 17.580935 -48.758675 -0.654605 -3.948682 20.094630 -1.578390 -3.881676 -4.799642 -12.366913 -2.898274 -45.513070 0.915305 11.463701 29.444927 -1.334087 8.133146 -0.691882 0.104900 -2.088300 -5.749800 0.868296 1.712095 -1.227176 20.412152 -5.140032 -18.770754 -1.389851 -9.658994 27.018273 -3.042254 24.703344 -11.859181 -0.069600 -1.702400 4.684000 1.986032 2.217820 -8.254789 1.025812 2.100510 -9.015101 -0.090927 1.426478 1.329245 -1.728433 -2.228423 -7.721952 1.542128 -2.789157 14.795681 -0.856800 -1.146500 4.665100 13.227311 8.351755 0.677603 -100.786954 22.198089 15.800702 7.288714 -20.240191 -0.978423 -1.102472 -0.615651 20.803574 11.570803 -20.391205 -4.161900 -7.125000 0.000000 0.000000 -10.274500 10.460400 8.377800 -13.072519 -7.291824 -0.433992 95.367416 7.062965 33.970915 -28.583446 46.179680 -11.036416 0.071740 -1.679287 -14.908867 -17.696534 -35.345937 9.829000 7.125000 0.000000 0.000000 19.184700 -63.930500 -8.964200 
-0.540297 17.565467 -48.520106 -0.698211 -4.817883 20.162360 -1.691283 -3.952616 -4.893133 -12.001914 -2.580286 -45.121067 0.217617 10.327076 25.929687 -1.510188 8.978129 -0.150575 0.102600 -2.065800 -5.687700 0.930707 1.675723 -1.134463 20.094642 -5.369896 -17.778465 -1.300642 -9.396821 26.327164 -2.989050 25.249514 -11.473101 -0.063300 -1.623400 4.465900 1.793198 2.438813 -8.409565 0.960653 2.387480 -8.989190 0.071312 1.593023 1.407340 -1.890285 -2.135943 -7.595529 1.652211 -2.689628 14.247676 -0.864500 -1.104400 4.894500 13.256869 8.356794 0.749562 -101.339557 21.164674 12.719990 6.301124 -18.381660 -0.685213 -1.127941 -0.630390 23.074323 11.881471 -20.235073 -4.217000 -7.125000 0.000000 0.000000 -10.083800 10.645000 8.178600 -13.077900 -7.325924 -0.468048 94.924268 7.601726 34.883612 -29.584017 46.965170 -11.640170 0.093967 -1.660039 -15.421159 -18.153771 -35.660989 10.191800 7.125000 0.000000 0.000000 18.963500 -64.363300 -9.048100 
-0.523218 17.553866 -48.266499 -0.852362 -5.921099 20.160902 -1.796789 -4.013077 -4.983932 -11.397360 -2.278152 -44.540184 -0.369247 9.198557 22.564856 -1.730906 9.969561 0.153899 0.090700 -1.942200 -5.346000 0.987409 1.617323 -1.033280 19.752194 -5.694918 -16.646865 -1.211612 -9.099180 25.538918 -2.881404 26.224278 -10.885880 -0.065400 -1.650400 4.540300 1.785470 2.825924 -8.639416 0.850418 2.854536 -8.936646 0.051292 1.833346 1.557202 -1.874482 -2.178728 -7.278704 1.514483 -2.746571 14.032109 -0.925000 -1.139400 4.684600 13.240962 8.366083 0.785928 -101.386253 21.628481 11.093568 6.004656 -17.834817 -0.611541 -1.123887 -0.647882 23.972927 12.330017 -19.805401 -4.261400 -7.125000 0.000000 0.000000 -9.802500 11.062100 7.858400 -13.075745 -7.343434 -0.488593 94.570296 7.910637 35.431952 -30.690503 47.810608 -12.318927 0.119482 -1.656496 -15.524102 -18.277056 -36.916684 10.601600 7.125000 0.000000 0.000000 20.055000 -65.564900 -10.145700 
-0.504528 17.539902 -48.018693 -1.038257 -6.810812 20.207069 -1.882333 -4.065378 -5.071395 -10.592309 -2.338893 -43.968935 -0.840942 8.124153 19.440731 -1.961978 10.961535 0.199929 0.035800 -1.221400 -3.358100 1.045815 1.549963 -0.928139 19.443208 -5.738145 -15.464110 -1.094271 -8.774424 24.663944 -2.768188 26.891168 -10.282908 -0.079400 -1.817700 5.002200 1.944476 3.166585 -8.782380 0.718713 3.246988 -8.937557 -0.167361 2.023847 1.544188 -1.928158 -2.163970 -6.869535 1.596790 -2.759194 13.839222 -0.858000 -1.147700 4.479300 13.208291 8.353141 0.805161 -101.332876 22.111158 9.231093 5.725034 -17.272805 -0.528927 -1.135343 -0.663816 25.133254 12.823217 -19.701512 -4.389000 -7.125000 0.000000 0.000000 -9.490300 11.157900 7.581800 -13.087723 -7.366626 -0.503585 94.421807 8.164993 35.798764 -31.597465 48.487525 -12.884715 0.147539 -1.655765 -15.296653 -18.014712 -37.935078 10.713100 7.125000 0.000000 0.000000 21.428100 -66.420600 -11.288200 
-0.488094 17.525616 -47.782917 -1.119319 -7.397802 20.360901 -1.952000 -4.104887 -5.154087 -9.887420 -2.658723 -43.563966 -1.216854 7.112474 16.552749 -2.160423 11.820302 0.208650 0.007100 -0.544500 -1.496200 1.098682 1.494773 -0.830433 19.136658 -5.855687 -14.501706 -0.977426 -8.457268 23.817098 -2.669058 27.271909 -9.687362 -0.079300 -1.816200 4.998000 1.983981 3.376923 -8.888444 0.599257 3.503214 -8.975054 -0.383665 2.139990 1.476302 -1.933331 -2.113511 -6.755942 1.799561 -2.730525 13.758324 -0.752100 -1.128200 4.416000 13.162213 8.341379 0.813438 -101.305698 22.826229 7.441127 5.650078 -17.109670 -0.502403 -1.173554 -0.634673 26.185059 12.562625 -19.990118 -4.374400 -7.125000 0.000000 0.000000 -9.647500 10.896200 7.763600 -13.098291 -7.380768 -0.525899 94.334028 8.549141 36.265815 -32.073511 48.849015 -13.199307 0.155649 -1.623008 -15.163398 -18.245892 -36.774797 10.582100 7.125000 0.000000 0.000000 19.887100 -65.448300 -10.004400 
-0.474022 17.511437 -47.551223 -1.238206 -7.821169 20.517597 -1.995959 -4.133611 -5.226332 -9.460401 -2.637501 -43.396023 -1.504503 6.172055 13.942063 -2.206372 12.079369 0.501336 0.000500 0.140600 0.386400 1.124155 1.440998 -0.742650 18.921146 -5.816209 -13.470833 -0.861456 -8.156415 23.048266 -2.523180 27.399943 -8.793654 -0.105100 -2.090700 5.756400 1.968840 3.519723 -8.879084 0.544427 3.682935 -9.024439 -0.425257 2.233225 1.354217 -2.009532 -2.046649 -6.856027 1.899044 -2.648808 13.680757 -0.685700 -1.090400 4.414700 13.130922 8.335718 0.823943 -101.386895 23.434012 5.467058 5.526864 -16.844143 -0.455983 -1.223075 -0.597409 27.625674 12.264068 -20.480211 -4.389500 -7.125000 0.000000 0.000000 -9.828400 10.441700 8.006200 -13.092015 -7.376674 -0.555361 94.113412 8.997186 36.747998 -32.378525 49.079280 -13.418159 0.159849 -1.561405 -14.473038 -18.254843 -34.345590 9.988500 7.125000 0.000000 0.000000 17.561700 -63.228100 -7.893100 
-0.459629 17.483509 -47.319206 -1.290846 -8.230581 20.660856 -2.019522 -4.150249 -5.283632 -9.520719 -2.141704 -43.527804 -1.722006 5.316358 11.631930 -2.068165 11.648909 1.176695 0.000100 0.074100 0.203600 1.139720 1.387330 -0.662780 18.628611 -5.630929 -12.375391 -0.759273 -7.889371 22.368935 -2.474795 27.205805 -8.378930 -0.117700 -2.212000 6.091900 1.811725 3.602980 -8.788057 0.516048 3.815749 -9.074992 -0.346704 2.312717 1.198640 -2.029519 -2.089883 -7.036892 1.780880 -2.682731 13.661831 -0.740800 -1.113900 4.462500 13.126630 8.343350 0.835962 -101.517573 23.403499 3.179015 5.164377 -16.081133 -0.358304 -1.250502 -0.577224 29.515525 12.299243 -20.516061 -4.403600 -7.125000 0.000000 0.000000 -9.807800 10.425300 7.992200 -13.073726 -7.358152 -0.589682 93.824436 9.424050 37.165606 -32.917780 49.453066 -13.775745 0.174984 -1.517651 -14.306598 -18.313834 -32.893094 9.657600 7.125000 0.000000 0.000000 16.298000 -61.894800 -6.797100 
